<svg xmlns="http://www.w3.org/2000/svg" viewBox="0 0 800 480" role="img">
  <defs>
    <linearGradient id="bp" x1="0" x2="1" y1="0" y2="1"><stop offset="0%" stop-color="#0b1f3d"/><stop offset="100%" stop-color="#4cc9f0"/></linearGradient>
  </defs>
  <rect width="800" height="480" fill="url(#bp)"/>
  <g transform="translate(500 80)">
    <rect width="240" height="320" rx="10" fill="#1e4d8c"/>
    <rect x="10" y="10" width="220" height="300" rx="6" fill="#fff"/>
    <g fill="#0b1f3d">
      <rect x="22" y="40" width="16" height="40" rx="2"/><rect x="42" y="40" width="16" height="40" rx="2"/>
      <rect x="62" y="40" width="16" height="40" rx="2"/><rect x="82" y="40" width="16" height="40" rx="2"/>
      <rect x="102" y="40" width="16" height="40" rx="2"/><rect x="122" y="40" width="16" height="40" rx="2"/>
      <rect x="142" y="40" width="16" height="40" rx="2"/><rect x="162" y="40" width="16" height="40" rx="2"/>
      <rect x="182" y="40" width="16" height="40" rx="2"/><rect x="202" y="40" width="16" height="40" rx="2"/>
    </g>
    <g fill="#ffd83a">
      <rect x="25" y="48" width="10" height="6"/><rect x="45" y="56" width="10" height="6"/>
      <rect x="65" y="48" width="10" height="6"/><rect x="85" y="56" width="10" height="6"/>
      <rect x="105" y="48" width="10" height="6"/><rect x="125" y="56" width="10" height="6"/>
      <rect x="145" y="48" width="10" height="6"/><rect x="165" y="56" width="10" height="6"/>
      <rect x="185" y="48" width="10" height="6"/><rect x="205" y="56" width="10" height="6"/>
    </g>
    <rect x="22" y="120" width="196" height="60" rx="4" fill="#eef3fa"/>
    <rect x="22" y="200" width="196" height="60" rx="4" fill="#eef3fa"/>
  </g>
  <text x="60" y="230" font-family="Arial" font-size="64" font-weight="900" fill="#ffd83a">POWER</text>
  <text x="60" y="288" font-family="Arial" font-size="22" fill="#ffffff" font-weight="bold">Control · Distribute · Protect</text>
</svg>
